<?xml version="1.0" standalone="no"?>
<!DOCTYPE svg PUBLIC "-//W3C//DTD SVG 20010904//EN"
 "http://www.w3.org/TR/2001/REC-SVG-20010904/DTD/svg10.dtd">
<svg version="1.0" xmlns="http://www.w3.org/2000/svg"
 width="200.000000pt" height="200.000000pt" viewBox="0 0 200.000000 200.000000"
 preserveAspectRatio="xMidYMid meet">

<g transform="translate(0.000000,200.000000) scale(0.100000,-0.100000)"
fill="#000000" stroke="none">
<path d="M758 1263 c23 -2 61 -2 85 0 23 2 4 4 -43 4 -47 0 -66 -2 -42 -4z"/>
<path d="M643 1033 c9 -2 25 -2 35 0 9 3 1 5 -18 5 -19 0 -27 -2 -17 -5z"/>
<path d="M973 1033 c15 -2 39 -2 55 0 15 2 2 4 -28 4 -30 0 -43 -2 -27 -4z"/>
<path d="M1293 1033 c15 -2 39 -2 55 0 15 2 2 4 -28 4 -30 0 -43 -2 -27 -4z"/>
<path d="M1860 915 c0 -42 -11 -58 -25 -35 -13 21 -66 10 -97 -20 -28 -28 -30
-35 -26 -81 8 -78 59 -115 119 -85 16 8 29 10 29 5 0 -5 9 -9 20 -9 19 0 20 7
20 135 0 128 -1 135 -20 135 -17 0 -20 -7 -20 -45z m-11 -96 c19 -34 7 -76
-24 -91 -34 -15 -65 12 -65 58 0 63 60 85 89 33z"/>
<path d="M154 880 c-50 -20 -72 -110 -39 -157 25 -35 83 -48 128 -29 56 23 46
55 -11 35 -57 -20 -104 28 -82 82 15 34 50 47 86 30 20 -9 26 -8 31 6 13 34
-59 55 -113 33z"/>
<path d="M370 883 c-30 -11 -60 -47 -66 -78 -14 -75 62 -138 136 -116 48 14
70 40 77 90 5 36 2 44 -30 76 -35 35 -73 44 -117 28z m78 -49 c39 -27 25 -94
-24 -108 -29 -9 -74 28 -74 60 0 28 32 64 58 64 10 0 28 -7 40 -16z"/>
<path d="M567 883 c-4 -3 -7 -49 -7 -100 0 -92 1 -94 23 -91 20 3 22 9 25 66
3 54 6 64 29 79 24 16 26 16 39 -2 8 -11 14 -44 14 -82 0 -55 2 -63 19 -63 16
0 19 9 23 60 4 63 28 103 57 98 12 -2 17 -21 21 -78 5 -68 7 -75 28 -78 21 -3
22 -1 22 81 0 69 -3 87 -18 100 -23 21 -61 22 -90 1 -21 -15 -25 -15 -41 0
-23 21 -60 20 -84 -1 -18 -17 -19 -17 -28 0 -10 18 -21 21 -32 10z"/>
<path d="M917 883 c-4 -3 -7 -67 -7 -140 0 -134 0 -134 23 -131 18 2 23 10 25
46 3 37 6 42 20 36 51 -23 114 10 125 66 8 39 -10 97 -36 115 -27 19 -66 19
-94 0 -19 -13 -22 -13 -27 0 -6 16 -18 19 -29 8z m132 -64 c19 -34 7 -76 -24
-91 -34 -15 -65 12 -65 58 0 63 60 85 89 33z"/>
<path d="M1168 879 c-36 -20 -21 -39 29 -36 37 1 48 -2 51 -14 2 -12 -7 -18
-35 -22 -48 -8 -83 -32 -83 -58 0 -54 49 -81 100 -54 17 9 30 11 30 5 0 -5 9
-10 20 -10 18 0 20 7 20 80 0 67 -3 83 -20 100 -22 22 -82 27 -112 9z m92
-107 c0 -18 -33 -52 -51 -52 -25 0 -35 25 -19 45 13 15 70 21 70 7z"/>
<path d="M1367 883 c-4 -3 -7 -49 -7 -100 0 -92 1 -94 23 -91 19 3 22 10 25
58 3 59 13 77 49 91 24 9 31 33 12 45 -6 3 -24 -3 -39 -14 -27 -21 -28 -21
-33 -2 -5 20 -18 26 -30 13z"/>
<path d="M1531 864 c-27 -22 -31 -33 -31 -73 0 -25 7 -56 15 -68 23 -32 77
-47 120 -33 39 13 47 21 36 38 -6 9 -15 10 -39 1 -26 -9 -37 -8 -57 5 -46 30
-32 46 40 46 l65 0 0 30 c0 73 -89 105 -149 54z m99 -34 c10 -19 8 -20 -35
-20 -46 0 -54 7 -33 28 19 19 56 14 68 -8z"/>
</g>
</svg>
